<svg width="0" height="0" class="hidden">
  <symbol version="1.0" xmlns="http://www.w3.org/2000/svg" preserveAspectRatio="xMidYMid meet" viewBox="0 0 256.000000 256.000000" id="green">
    <g transform="translate(0.000000,256.000000) scale(0.100000,-0.100000)" stroke="none">
      <path d="M1115 2276 c-392 -61 -719 -341 -844 -722 -45 -138 -53 -219 -49
-494 l3 -246 34 -68 c40 -82 94 -136 216 -218 171 -115 392 -207 575 -239 97
-17 363 -17 460 0 183 32 404 124 575 239 118 79 177 139 217 220 l33 66 3
246 c4 275 -4 356 -49 494 -126 384 -451 661 -849 721 -113 18 -215 18 -325 1z
m552 -648 c146 -44 272 -139 362 -274 60 -90 89 -175 102 -306 13 -120 8 -165
-9 -90 -36 157 -158 282 -302 311 -124 24 -203 -29 -217 -147 l-5 -47 83 -16
c116 -23 184 -51 252 -105 91 -71 118 -152 78 -239 -29 -66 -115 -125 -290
-201 -267 -115 -615 -115 -882 0 -175 76 -261 135 -290 201 -40 87 -13 168 78
239 68 54 136 82 252 105 l83 16 -5 47 c-3 26 -13 61 -22 77 -60 117 -268 93
-394 -44 -43 -47 -100 -154 -102 -190 0 -11 -5 -29 -10 -40 -18 -40 3 190 25
267 70 241 293 427 551 458 39 5 185 7 325 5 236 -3 261 -5 337 -27z"></path>
      <path d="M1152 1153 c-73 -36 -99 -117 -63 -198 32 -71 68 -115 115 -136 29
-13 35 -19 19 -19 -42 0 -254 40 -390 74 -157 40 -157 36 4 -55 72 -41 109
-71 172 -140 105 -114 158 -142 271 -142 113 0 166 28 271 142 63 69 100 99
172 140 161 91 161 95 4 55 -136 -34 -348 -74 -390 -74 -16 0 -10 6 19 19 47
21 83 65 115 136 36 82 10 163 -65 199 -47 22 -208 22 -254 -1z"></path>
    </g>
  </symbol>
</svg>